<?xml version="1.0" encoding="UTF-8" standalone="no"?>
<!-- Created with Inkscape (http://www.inkscape.org/) -->

<svg
   xmlns:dc="http://purl.org/dc/elements/1.1/"
   xmlns:cc="http://creativecommons.org/ns#"
   xmlns:rdf="http://www.w3.org/1999/02/22-rdf-syntax-ns#"
   xmlns:svg="http://www.w3.org/2000/svg"
   xmlns="http://www.w3.org/2000/svg"
   xmlns:sodipodi="http://sodipodi.sourceforge.net/DTD/sodipodi-0.dtd"
   xmlns:inkscape="http://www.inkscape.org/namespaces/inkscape"
   width="15"
   height="15"
   viewBox="0 0 3.9687499 3.9687501"
   version="1.1"
   id="svg91"
   sodipodi:docname="blueBoneUp.svg"
   inkscape:version="0.92.4 (ca053d0, 2019-01-16)">
  <defs
     id="defs85" />
  <sodipodi:namedview
     id="base"
     pagecolor="#ffffff"
     bordercolor="#666666"
     borderopacity="1.0"
     inkscape:pageopacity="0.0"
     inkscape:pageshadow="2"
     inkscape:zoom="15.839192"
     inkscape:cx="1.3557191"
     inkscape:cy="11.407251"
     inkscape:document-units="mm"
     inkscape:current-layer="layer1"
     showgrid="false"
     units="px"
     inkscape:window-width="1299"
     inkscape:window-height="713"
     inkscape:window-x="67"
     inkscape:window-y="27"
     inkscape:window-maximized="1" />
  <metadata
     id="metadata88">
    <rdf:RDF>
      <cc:Work
         rdf:about="">
        <dc:format>image/svg+xml</dc:format>
        <dc:type
           rdf:resource="http://purl.org/dc/dcmitype/StillImage" />
        <dc:title />
      </cc:Work>
    </rdf:RDF>
  </metadata>
  <g
     inkscape:label="Layer 1"
     inkscape:groupmode="layer"
     id="layer1"
     transform="translate(0,-293.03122)">
    <path
       style="fill:#ffffff;stroke-width:0.13363476"
       d="m 24.939763,290.80814 c -0.169396,-0.18092 -0.300679,-0.49097 -0.300679,-0.71011 0,-0.66812 0.159343,-1.2242 0.350792,-1.2242 0.101061,0 0.183747,-0.0902 0.183747,-0.20045 0,-0.11136 0.118787,-0.20045 0.26727,-0.20045 0.148483,0 0.267269,-0.0891 0.267269,-0.20045 0,-0.11025 0.0902,-0.20045 0.200453,-0.20045 0.110248,0 0.200452,-0.0902 0.200452,-0.20046 0,-0.13999 0.141059,-0.20045 0.467721,-0.20045 0.326663,0 0.467722,0.0605 0.467722,0.20045 0,0.11025 0.0902,0.20046 0.200452,0.20046 0.111362,0 0.200452,0.11878 0.200452,0.26727 0,0.14848 0.08909,0.26726 0.200453,0.26726 0.110248,0 0.200452,0.0902 0.200452,0.20046 0,0.11136 0.118786,0.20045 0.267269,0.20045 0.219888,0 0.267138,0.0888 0.266524,0.50113 -0.0012,0.79684 -0.240463,1.47711 -0.554636,1.57682 -0.153887,0.0489 -0.317389,0.0303 -0.363337,-0.0411 -0.04595,-0.0715 -0.218847,-0.17215 -0.38422,-0.22376 -0.175725,-0.0548 -0.300678,-0.20116 -0.300678,-0.35209 0,-0.16918 -0.0922,-0.25827 -0.26727,-0.25827 -0.146998,0 -0.267269,0.0644 -0.267269,0.14318 0,0.21291 -0.351805,0.525 -0.591812,0.525 -0.115498,0 -0.209997,0.0601 -0.209997,0.13363 0,0.21385 -0.177741,0.14155 -0.50113,-0.20385 z"
       id="path99"
       inkscape:connector-curvature="0" />
    <path
       style="fill:#59daff;stroke-width:0.01670435;fill-opacity:1"
       d="m 1.5722713,296.96662 -0.054289,-0.007 v -0.24115 -0.24116 H 1.267417 1.0168518 v -0.25212 -0.25213 l -0.1583824,0.0119 c -0.08711,0.007 -0.2002117,0.007 -0.2513363,2.6e-4 l -0.092954,-0.0116 0.00254,-0.23674 0.00254,-0.23673 -0.2420301,-0.005 -0.2420281,-0.005 -0.012424,-0.69578 c -0.012713,-0.71194 -0.00665,-1.21475 0.014908,-1.23631 0.00666,-0.007 0.064292,-0.015 0.1280783,-0.0186 l 0.1159755,-0.007 -0.01062,-0.11427 -0.01062,-0.11427 0.1234328,-0.005 0.1234329,-0.005 0.00512,-0.0996 c 0.00281,-0.0548 0.013131,-0.10931 0.022926,-0.12111 0.012816,-0.0154 0.07812,-0.0215 0.2329199,-0.0215 h 0.2151129 v 0.12774 0.12773 l 0.2404155,-0.009 0.2404156,-0.009 0.014326,0.12766 0.014326,0.12765 0.1127544,0.005 0.1127543,0.005 v 0.24046 c 0,0.13226 0.00564,0.24312 0.012528,0.24636 0.00689,0.003 0.1271618,0.003 0.2672695,-5.4e-4 l 0.2547413,-0.006 v -0.21426 c 0,-0.11784 0.00456,-0.22614 0.010139,-0.24068 0.00789,-0.0206 0.035697,-0.0264 0.1252826,-0.0264 h 0.1151432 v -0.12528 -0.12528 l 0.1378111,-1.2e-4 c 0.075796,-7e-5 0.1885503,-0.005 0.2505652,-0.0108 l 0.1127543,-0.0106 v -0.11451 -0.11452 h 0.2251903 c 0.2556523,0 0.2376181,-0.0116 0.2465184,0.15869 l 0.00437,0.0835 0.1211064,0.005 0.1211067,0.005 v 0.11441 c 0,0.13139 0.00352,0.13469 0.1433531,0.13469 h 0.090508 v 0.96885 0.96885 H 3.7063929 3.4559688 l 0.010644,0.19798 c 0.00586,0.10888 0.00565,0.21788 -4.498e-4,0.24221 l -0.011105,0.0442 H 3.2136015 2.9721533 l -0.00462,0.24639 -0.00462,0.24639 -0.2459451,0.005 -0.245945,0.005 -0.00462,0.24594 -0.00462,0.24595 -0.4176087,0.002 c -0.2296847,9e-4 -0.4420387,-0.001 -0.4718977,-0.005 z"
       id="path122"
       inkscape:connector-curvature="0" />
  </g>
</svg>
