<?xml version="1.0" encoding="UTF-8" standalone="no"?>
<!-- Created with Inkscape (http://www.inkscape.org/) -->

<svg
   xmlns:dc="http://purl.org/dc/elements/1.1/"
   xmlns:cc="http://creativecommons.org/ns#"
   xmlns:rdf="http://www.w3.org/1999/02/22-rdf-syntax-ns#"
   xmlns:svg="http://www.w3.org/2000/svg"
   xmlns="http://www.w3.org/2000/svg"
   xmlns:sodipodi="http://sodipodi.sourceforge.net/DTD/sodipodi-0.dtd"
   xmlns:inkscape="http://www.inkscape.org/namespaces/inkscape"
   width="15"
   height="15"
   viewBox="0 0 3.9687499 3.9687501"
   version="1.1"
   id="svg91"
   sodipodi:docname="boneDown.svg"
   inkscape:version="0.92.4 (ca053d0, 2019-01-16)">
  <defs
     id="defs85" />
  <sodipodi:namedview
     id="base"
     pagecolor="#ffffff"
     bordercolor="#666666"
     borderopacity="1.0"
     inkscape:pageopacity="0.0"
     inkscape:pageshadow="2"
     inkscape:zoom="15.839192"
     inkscape:cx="11.520379"
     inkscape:cy="11.407251"
     inkscape:document-units="mm"
     inkscape:current-layer="layer1"
     showgrid="false"
     units="px"
     inkscape:window-width="1299"
     inkscape:window-height="713"
     inkscape:window-x="67"
     inkscape:window-y="27"
     inkscape:window-maximized="1" />
  <metadata
     id="metadata88">
    <rdf:RDF>
      <cc:Work
         rdf:about="">
        <dc:format>image/svg+xml</dc:format>
        <dc:type
           rdf:resource="http://purl.org/dc/dcmitype/StillImage" />
        <dc:title></dc:title>
      </cc:Work>
    </rdf:RDF>
  </metadata>
  <g
     inkscape:label="Layer 1"
     inkscape:groupmode="layer"
     id="layer1"
     transform="translate(0,-293.03122)">
    <path
       style="fill:#ffffff;stroke-width:0.13363476"
       d="m 24.939763,290.80814 c -0.169396,-0.18092 -0.300679,-0.49097 -0.300679,-0.71011 0,-0.66812 0.159343,-1.2242 0.350792,-1.2242 0.101061,0 0.183747,-0.0902 0.183747,-0.20045 0,-0.11136 0.118787,-0.20045 0.26727,-0.20045 0.148483,0 0.267269,-0.0891 0.267269,-0.20045 0,-0.11025 0.0902,-0.20045 0.200453,-0.20045 0.110248,0 0.200452,-0.0902 0.200452,-0.20046 0,-0.13999 0.141059,-0.20045 0.467721,-0.20045 0.326663,0 0.467722,0.0605 0.467722,0.20045 0,0.11025 0.0902,0.20046 0.200452,0.20046 0.111362,0 0.200452,0.11878 0.200452,0.26727 0,0.14848 0.08909,0.26726 0.200453,0.26726 0.110248,0 0.200452,0.0902 0.200452,0.20046 0,0.11136 0.118786,0.20045 0.267269,0.20045 0.219888,0 0.267138,0.0888 0.266524,0.50113 -0.0012,0.79684 -0.240463,1.47711 -0.554636,1.57682 -0.153887,0.0489 -0.317389,0.0303 -0.363337,-0.0411 -0.04595,-0.0715 -0.218847,-0.17215 -0.38422,-0.22376 -0.175725,-0.0548 -0.300678,-0.20116 -0.300678,-0.35209 0,-0.16918 -0.0922,-0.25827 -0.26727,-0.25827 -0.146998,0 -0.267269,0.0644 -0.267269,0.14318 0,0.21291 -0.351805,0.525 -0.591812,0.525 -0.115498,0 -0.209997,0.0601 -0.209997,0.13363 0,0.21385 -0.177741,0.14155 -0.50113,-0.20385 z"
       id="path99"
       inkscape:connector-curvature="0" />
    <path
       style="fill:#ffffff;stroke-width:0.01670435"
       d="m 0.52526681,296.9189 c -0.01796,-0.018 -0.02625,-0.0575 -0.02625,-0.12528 v -0.099 h -0.1252821 -0.1252826 v -0.10523 c 0,-0.0596 -0.0087,-0.11394 -0.020045,-0.12529 -0.011025,-0.011 -0.063643,-0.02 -0.1169304,-0.02 h -0.096885 l 2.81e-5,-0.42179 c 1.54e-5,-0.23198 0.00498,-0.66401 0.011043,-0.96006 l 0.011015,-0.53829 0.2425191,-0.005 0.2425192,-0.005 0.00118,-0.23386 0.00118,-0.23386 0.246389,-0.005 0.24638909,-0.005 v -0.25012 -0.25012 h 0.2505652 0.2505652 v -0.25056 -0.25057 l 0.3299108,10e-5 c 0.181451,6e-5 0.3919257,0.005 0.4677217,0.0108 l 0.1378108,0.0107 v 0.23974 0.23973 h 0.2505628 0.2505652 v 0.25253 0.25253 l 0.1628674,-0.005 c 0.089577,-0.003 0.2023314,-0.004 0.2505652,-0.002 l 0.087698,0.003 v 0.24222 0.24221 l 0.2046282,2.3e-4 c 0.1125456,1.2e-4 0.2215415,0.005 0.2422131,0.0103 l 0.037585,0.0101 v 0.90635 c 0,0.49849 -0.0047,0.92984 -0.010441,0.95855 -0.00864,0.0432 -0.01832,0.0522 -0.056134,0.0522 -0.02513,0 -0.078891,0.005 -0.1194649,0.0101 l -0.073772,0.0101 0.00651,0.11517 0.00651,0.11517 H 3.5760711 3.4588231 l -0.011128,0.0877 c -0.020013,0.15771 -7.673e-4,0.14616 -0.2436979,0.14616 H 2.9879661 v -0.12668 -0.12668 l -0.2400498,0.0119 -0.24005,0.0119 -0.011858,-0.12654 -0.011858,-0.12655 -0.1155876,-0.0114 -0.1155875,-0.0114 v -0.24046 -0.24047 l -0.2714457,0.005 -0.2714456,0.005 -0.00835,0.23386 -0.00835,0.23386 -0.1211065,0.005 -0.1211065,0.005 v 0.12455 0.12455 l -0.1378109,1.1e-4 c -0.075796,7e-5 -0.1885502,0.005 -0.2505651,0.0108 l -0.11275439,0.0106 v 0.11452 0.11451 h -0.199265 c -0.1588721,0 -0.2045794,-0.005 -0.2255087,-0.0263 z"
       id="path145"
       inkscape:connector-curvature="0" />
  </g>
</svg>
